<svg width="33" height="33" viewBox="0 0 33 33" fill="none" xmlns="http://www.w3.org/2000/svg">
<path fill-rule="evenodd" clip-rule="evenodd" d="M16.5 29.9062C9.09593 29.9062 3.09375 23.9041 3.09375 16.5C3.09375 9.09593 9.09593 3.09375 16.5 3.09375C23.9041 3.09375 29.9062 9.09593 29.9062 16.5C29.9062 23.9041 23.9041 29.9062 16.5 29.9062ZM16.5 27.8438C22.765 27.8438 27.8438 22.765 27.8438 16.5C27.8438 10.235 22.765 5.15625 16.5 5.15625C10.235 5.15625 5.15625 10.235 5.15625 16.5C5.15625 22.765 10.235 27.8438 16.5 27.8438ZM15.4688 10.875C15.4688 10.3055 15.9305 9.84378 16.5 9.84378C17.0695 9.84378 17.5312 10.3055 17.5312 10.875V15.4688H22.125C22.6945 15.4688 23.1562 15.9305 23.1562 16.5C23.1562 17.0695 22.6945 17.5312 22.125 17.5312H17.5312V22.125C17.5312 22.6946 17.0695 23.1563 16.5 23.1563C15.9305 23.1563 15.4688 22.6946 15.4688 22.125V17.5312H10.875C10.3055 17.5312 9.84375 17.0695 9.84375 16.5C9.84375 15.9305 10.3055 15.4688 10.875 15.4688H15.4688V10.875Z" fill="#313131"/>
</svg>
