<svg width="28" height="28" viewBox="0 0 28 28" fill="none" xmlns="http://www.w3.org/2000/svg">
<path fill-rule="evenodd" clip-rule="evenodd" d="M0 14C0 6.28017 6.28017 0 14 0C21.7198 0 28 6.28017 28 14C28 21.7198 21.7198 28 14 28C6.28017 28 0 21.7198 0 14ZM16.3333 18.6667C18.8977 18.6667 21.0397 20.3362 21.8143 22.638C24.1733 20.5018 25.6667 17.4253 25.6667 14C25.6667 7.567 20.433 2.33333 14 2.33333C7.567 2.33333 2.33333 7.567 2.33333 14C2.33333 17.4265 3.82783 20.503 6.188 22.6392C6.96267 20.3373 9.10233 18.6667 11.6667 18.6667H16.3333Z" fill="#565656"/>
<path d="M13.9997 5.8335C11.4225 5.8335 9.33301 7.923 9.33301 10.5002V11.6668C9.33301 14.244 11.4225 16.3335 13.9997 16.3335C16.5768 16.3335 18.6663 14.244 18.6663 11.6668V10.5002C18.6663 7.923 16.5768 5.8335 13.9997 5.8335Z" fill="#5E5E5E"/>
</svg>
