<svg width="33" height="33" viewBox="0 0 33 33" fill="none" xmlns="http://www.w3.org/2000/svg">
<path fill-rule="evenodd" clip-rule="evenodd" d="M19.6528 31.1555C20.34 31.5304 21.1779 31.033 21.1779 30.2502V23.8172H26.3669C26.9364 23.8172 27.3981 23.3555 27.3981 22.7859V4.1252C27.3981 3.55565 26.9364 3.09395 26.3669 3.09395H6.48306C6.4381 3.09307 6.39327 3.09515 6.34886 3.10009L6.33518 3.10171C6.19439 3.11929 6.05811 3.16572 5.93561 3.23829C5.80929 3.31344 5.70038 3.41481 5.61641 3.5349C5.59503 3.56561 5.57511 3.59778 5.55678 3.63138C5.51881 3.70098 5.4897 3.77304 5.46905 3.84617C5.4668 3.85418 5.46465 3.86223 5.4626 3.87033C5.43942 3.96092 5.42908 4.05306 5.43086 4.14432V22.7859C5.43086 23.1633 5.63699 23.5105 5.96829 23.6912L19.6528 31.1555ZM10.5063 5.15639L20.6405 10.6841C20.9718 10.8648 21.1779 11.212 21.1779 11.5894V21.7546H25.3356V5.15639H10.5063ZM7.49335 5.86243V22.1738L19.1154 28.5131V12.2017L7.49335 5.86243Z" fill="#FC8FA0"/>
</svg>
